<svg id="Layer_1" data-name="Layer 1" xmlns="http://www.w3.org/2000/svg" viewBox="0 0 581.13 95.92"><defs><style>.cls-1{fill:#00315c;}</style></defs><path class="cls-1" d="M399.75,76.84V1.59H378.29V94.33h68V76.84Z"/><path class="cls-1" d="M334.85,94.33h21.46V52.41L334.85,73.87Zm0-92.74V43.51l21.46-21.46V1.59Z"/><path class="cls-1" d="M559.67,94.33h21.46V52.41L559.67,73.87Zm0-92.74V43.51l21.46-21.46V1.59Z"/><path class="cls-1" d="M168.19,27.83c0-5.84,4.89-10.6,17.61-10.6a52.3,52.3,0,0,1,25.7,7.29l6.62-16.3C209.52,2.78,197.6,0,185.93,0c-26.37,0-39.08,13.11-39.08,28.88,0,34.44,53.92,22.52,53.92,39.88,0,5.7-5.17,9.94-17.88,9.94-11.13,0-22.8-4-30.61-9.68L145,85.19c8.21,6.35,23,10.73,37.75,10.73,26.49,0,39.35-13.24,39.35-28.75C222.1,33.13,168.19,44.92,168.19,27.83Z"/><path class="cls-1" d="M320.49,88.23,307.07,71.29,284.63,42.92,323.05,1.59H299.2L258.14,44.92V1.59H236.8V94.33h21.34V70.88l12.45-13,29.67,36.43h25.05Z"/><path class="cls-1" d="M526.41,46.11a22.29,22.29,0,0,0,12.31-20.4c0-14.45-11.92-24.12-35.1-24.12H458.31V94.33h48c24.37,0,37.1-9.27,37.1-25.31C543.37,57.37,536.74,49.42,526.41,46.11ZM479.64,17.76H501c10.45,0,16.15,3.57,16.15,10.86s-5.7,11-16.15,11H479.64Zm25,60.41h-25V55.25h25c11.13,0,17.08,3.71,17.08,11.53S515.81,78.17,504.68,78.17Z"/><path class="cls-1" d="M115.1,0A38.1,38.1,0,0,1,110,19.19,38.33,38.33,0,0,1,76.73,38.37H38.37A38.38,38.38,0,0,1,76.73,0Z"/><path class="cls-1" d="M76.73,57.55A38.36,38.36,0,0,1,38.37,95.92H0A38.38,38.38,0,0,1,38.37,57.55Z"/></svg>